<svg xmlns="http://www.w3.org/2000/svg" width="600" height="522" viewBox="0 0 300 261">
  <rect x="0" y="0" width="300" height="261" rx="10" fill="#F8F2E3"/>
  <text x="14" y="17" font-family="sans-serif" font-size="7" font-weight="700" letter-spacing="1.2" fill="#B08A2E">FOURTH SERIES · No. 26</text>
  <text x="286" y="17" font-family="sans-serif" font-size="7.5" font-weight="600" fill="#5A6472" text-anchor="end">A3–C6</text>
  <g transform="translate(0 35)"><g stroke="#3A4658" stroke-width="1" opacity="0.7"><line x1="6" y1="20" x2="294" y2="20" /><line x1="6" y1="32" x2="294" y2="32" /><line x1="6" y1="44" x2="294" y2="44" /><line x1="6" y1="56" x2="294" y2="56" /><line x1="6" y1="68" x2="294" y2="68" /></g><path d="M22 70c0-10 4-16 4-26 0-7-7-9-7-3 0 5 6 6 8 1 3-8-2-16-5-16" stroke="#1B2F49" stroke-width="1.6" stroke-linecap="round" fill="none" /><g stroke="#3A4658" stroke-width="1" opacity="0.5"></g><line x1="294" y1="14" x2="294" y2="74" stroke="#3A4658" stroke-width="1.4" opacity="0.7" /><g><g stroke="#1B2F49" stroke-width="1" opacity="0.8"><line x1="46.21145374449339" y1="80" x2="62.21145374449339" y2="80" /></g><ellipse cx="54.21145374449339" cy="86" rx="5.2" ry="3.8" transform="rotate(-20 54.21145374449339 86)" fill="#1B2F49" stroke="#1B2F49" stroke-width="0" /><text x="45.21145374449339" y="89.5" fill="#1B2F49" font-size="11" text-anchor="middle">♭</text><line x1="58.91145374449339" y1="86" x2="58.91145374449339" y2="46" stroke="#1B2F49" stroke-width="1.3" /></g><g><g stroke="#1B2F49" stroke-width="1" opacity="0.8"><line x1="62.87224669603523" y1="80" x2="78.87224669603523" y2="80" /></g><ellipse cx="70.87224669603523" cy="80" rx="5.2" ry="3.8" transform="rotate(-20 70.87224669603523 80)" fill="#1B2F49" stroke="#1B2F49" stroke-width="0" /><line x1="75.57224669603524" y1="80" x2="75.57224669603524" y2="46" stroke="#1B2F49" stroke-width="1.3" /></g><g><ellipse cx="83.77092511013215" cy="74" rx="5.2" ry="3.8" transform="rotate(-20 83.77092511013215 74)" fill="#1B2F49" stroke="#1B2F49" stroke-width="0" /><line x1="88.47092511013216" y1="74" x2="88.47092511013216" y2="46" stroke="#1B2F49" stroke-width="1.3" /></g><g><ellipse cx="96.66960352422907" cy="68" rx="5.2" ry="3.8" transform="rotate(-20 96.66960352422907 68)" fill="#1B2F49" stroke="#1B2F49" stroke-width="0" /><line x1="101.36960352422908" y1="68" x2="101.36960352422908" y2="46" stroke="#1B2F49" stroke-width="1.3" /></g><g><ellipse cx="113.33039647577093" cy="62" rx="5.2" ry="3.8" transform="rotate(-20 113.33039647577093 62)" fill="#1B2F49" stroke="#1B2F49" stroke-width="0" /><text x="104.33039647577093" y="65.5" fill="#1B2F49" font-size="11" text-anchor="middle">♯</text><line x1="118.03039647577093" y1="62" x2="118.03039647577093" y2="22" stroke="#1B2F49" stroke-width="1.3" /></g><g><ellipse cx="129.99118942731278" cy="56" rx="5.2" ry="3.8" transform="rotate(-20 129.99118942731278 56)" fill="#1B2F49" stroke="#1B2F49" stroke-width="0" /><line x1="134.69118942731276" y1="56" x2="134.69118942731276" y2="22" stroke="#1B2F49" stroke-width="1.3" /></g><g><ellipse cx="142.88986784140968" cy="50" rx="5.2" ry="3.8" transform="rotate(-20 142.88986784140968 50)" fill="#1B2F49" stroke="#1B2F49" stroke-width="0" /><line x1="147.58986784140967" y1="50" x2="147.58986784140967" y2="22" stroke="#1B2F49" stroke-width="1.3" /></g><g><ellipse cx="159.55066079295153" cy="44" rx="5.2" ry="3.8" transform="rotate(-20 159.55066079295153 44)" fill="#1B2F49" stroke="#1B2F49" stroke-width="0" /><text x="150.55066079295153" y="47.5" fill="#1B2F49" font-size="11" text-anchor="middle">♭</text><line x1="164.25066079295152" y1="44" x2="164.25066079295152" y2="22" stroke="#1B2F49" stroke-width="1.3" /></g><g><ellipse cx="176.21145374449338" cy="38" rx="5.2" ry="3.8" transform="rotate(-20 176.21145374449338 38)" fill="#1B2F49" stroke="#1B2F49" stroke-width="0" /><line x1="171.5114537444934" y1="38" x2="171.5114537444934" y2="60" stroke="#1B2F49" stroke-width="1.3" /></g><g><ellipse cx="189.1101321585903" cy="32" rx="5.2" ry="3.8" transform="rotate(-20 189.1101321585903 32)" fill="#1B2F49" stroke="#1B2F49" stroke-width="0" /><line x1="184.4101321585903" y1="32" x2="184.4101321585903" y2="60" stroke="#1B2F49" stroke-width="1.3" /></g><g><ellipse cx="202.00881057268722" cy="26" rx="5.2" ry="3.8" transform="rotate(-20 202.00881057268722 26)" fill="#1B2F49" stroke="#1B2F49" stroke-width="0" /><line x1="197.30881057268724" y1="26" x2="197.30881057268724" y2="60" stroke="#1B2F49" stroke-width="1.3" /></g><g><ellipse cx="218.66960352422907" cy="20" rx="5.2" ry="3.8" transform="rotate(-20 218.66960352422907 20)" fill="#1B2F49" stroke="#1B2F49" stroke-width="0" /><text x="209.66960352422907" y="23.5" fill="#1B2F49" font-size="11" text-anchor="middle">♯</text><line x1="213.9696035242291" y1="20" x2="213.9696035242291" y2="60" stroke="#1B2F49" stroke-width="1.3" /></g><g><ellipse cx="235.3303964757709" cy="14" rx="5.2" ry="3.8" transform="rotate(-20 235.3303964757709 14)" fill="#1B2F49" stroke="#1B2F49" stroke-width="0" /><line x1="230.6303964757709" y1="14" x2="230.6303964757709" y2="36" stroke="#1B2F49" stroke-width="1.3" /></g><g><g stroke="#1B2F49" stroke-width="1" opacity="0.8"><line x1="240.22907488986783" y1="8" x2="256.22907488986783" y2="8" /></g><ellipse cx="248.22907488986783" cy="8" rx="5.2" ry="3.8" transform="rotate(-20 248.22907488986783 8)" fill="#1B2F49" stroke="#1B2F49" stroke-width="0" /><line x1="243.52907488986784" y1="8" x2="243.52907488986784" y2="36" stroke="#1B2F49" stroke-width="1.3" /></g><g><g stroke="#1B2F49" stroke-width="1" opacity="0.8"><line x1="256.8898678414097" y1="8" x2="272.8898678414097" y2="8" /></g><ellipse cx="264.8898678414097" cy="2" rx="5.2" ry="3.8" transform="rotate(-20 264.8898678414097 2)" fill="#1B2F49" stroke="#1B2F49" stroke-width="0" /><text x="255.88986784140968" y="5.5" fill="#1B2F49" font-size="11" text-anchor="middle">♭</text><line x1="260.1898678414097" y1="2" x2="260.1898678414097" y2="36" stroke="#1B2F49" stroke-width="1.3" /></g><g><g stroke="#1B2F49" stroke-width="1" opacity="0.8"><line x1="273.55066079295153" y1="8" x2="289.55066079295153" y2="8" /><line x1="273.55066079295153" y1="-4" x2="289.55066079295153" y2="-4" /></g><ellipse cx="281.55066079295153" cy="-4" rx="5.2" ry="3.8" transform="rotate(-20 281.55066079295153 -4)" fill="#1B2F49" stroke="#1B2F49" stroke-width="0" /><line x1="276.85066079295154" y1="-4" x2="276.85066079295154" y2="36" stroke="#1B2F49" stroke-width="1.3" /></g><line x1="58.91145374449339" y1="46" x2="101.36960352422908" y2="46" stroke="#1B2F49" stroke-width="3.5" /><line x1="58.91145374449339" y1="52" x2="75.57224669603524" y2="52" stroke="#1B2F49" stroke-width="3" /><line x1="75.57224669603524" y1="52" x2="88.47092511013216" y2="52" stroke="#1B2F49" stroke-width="3" /><line x1="88.47092511013216" y1="52" x2="101.36960352422908" y2="52" stroke="#1B2F49" stroke-width="3" /><line x1="118.03039647577093" y1="22" x2="164.25066079295152" y2="22" stroke="#1B2F49" stroke-width="3.5" /><line x1="118.03039647577093" y1="28" x2="134.69118942731276" y2="28" stroke="#1B2F49" stroke-width="3" /><line x1="134.69118942731276" y1="28" x2="147.58986784140967" y2="28" stroke="#1B2F49" stroke-width="3" /><line x1="147.58986784140967" y1="28" x2="164.25066079295152" y2="28" stroke="#1B2F49" stroke-width="3" /><line x1="171.5114537444934" y1="60" x2="213.9696035242291" y2="60" stroke="#1B2F49" stroke-width="3.5" /><line x1="171.5114537444934" y1="54" x2="184.4101321585903" y2="54" stroke="#1B2F49" stroke-width="3" /><line x1="184.4101321585903" y1="54" x2="197.30881057268724" y2="54" stroke="#1B2F49" stroke-width="3" /><line x1="197.30881057268724" y1="54" x2="213.9696035242291" y2="54" stroke="#1B2F49" stroke-width="3" /><line x1="230.6303964757709" y1="36" x2="276.85066079295154" y2="36" stroke="#1B2F49" stroke-width="3.5" /><line x1="230.6303964757709" y1="30" x2="243.52907488986784" y2="30" stroke="#1B2F49" stroke-width="3" /><line x1="243.52907488986784" y1="30" x2="260.1898678414097" y2="30" stroke="#1B2F49" stroke-width="3" /><line x1="260.1898678414097" y1="30" x2="276.85066079295154" y2="30" stroke="#1B2F49" stroke-width="3" /></g>
  <g transform="translate(0 142)"><g stroke="#3A4658" stroke-width="1" opacity="0.7"><line x1="6" y1="20" x2="294" y2="20" /><line x1="6" y1="32" x2="294" y2="32" /><line x1="6" y1="44" x2="294" y2="44" /><line x1="6" y1="56" x2="294" y2="56" /><line x1="6" y1="68" x2="294" y2="68" /></g><path d="M22 70c0-10 4-16 4-26 0-7-7-9-7-3 0 5 6 6 8 1 3-8-2-16-5-16" stroke="#1B2F49" stroke-width="1.6" stroke-linecap="round" fill="none" /><g stroke="#3A4658" stroke-width="1" opacity="0.5"></g><line x1="294" y1="14" x2="294" y2="74" stroke="#3A4658" stroke-width="1.4" opacity="0.7" /><g><g stroke="#1B2F49" stroke-width="1" opacity="0.8"><line x1="46.21145374449339" y1="8" x2="62.21145374449339" y2="8" /></g><ellipse cx="54.21145374449339" cy="2" rx="5.2" ry="3.8" transform="rotate(-20 54.21145374449339 2)" fill="#1B2F49" stroke="#1B2F49" stroke-width="0" /><text x="45.21145374449339" y="5.5" fill="#1B2F49" font-size="11" text-anchor="middle">♭</text><line x1="49.51145374449339" y1="2" x2="49.51145374449339" y2="42" stroke="#1B2F49" stroke-width="1.3" /></g><g><g stroke="#1B2F49" stroke-width="1" opacity="0.8"><line x1="62.87224669603523" y1="8" x2="78.87224669603523" y2="8" /></g><ellipse cx="70.87224669603523" cy="8" rx="5.2" ry="3.8" transform="rotate(-20 70.87224669603523 8)" fill="#1B2F49" stroke="#1B2F49" stroke-width="0" /><line x1="66.17224669603523" y1="8" x2="66.17224669603523" y2="42" stroke="#1B2F49" stroke-width="1.3" /></g><g><ellipse cx="83.77092511013215" cy="14" rx="5.2" ry="3.8" transform="rotate(-20 83.77092511013215 14)" fill="#1B2F49" stroke="#1B2F49" stroke-width="0" /><line x1="79.07092511013215" y1="14" x2="79.07092511013215" y2="42" stroke="#1B2F49" stroke-width="1.3" /></g><g><ellipse cx="96.66960352422907" cy="20" rx="5.2" ry="3.8" transform="rotate(-20 96.66960352422907 20)" fill="#1B2F49" stroke="#1B2F49" stroke-width="0" /><line x1="91.96960352422907" y1="20" x2="91.96960352422907" y2="42" stroke="#1B2F49" stroke-width="1.3" /></g><g><ellipse cx="113.33039647577093" cy="26" rx="5.2" ry="3.8" transform="rotate(-20 113.33039647577093 26)" fill="#1B2F49" stroke="#1B2F49" stroke-width="0" /><text x="104.33039647577093" y="29.5" fill="#1B2F49" font-size="11" text-anchor="middle">♭</text><line x1="108.63039647577092" y1="26" x2="108.63039647577092" y2="66" stroke="#1B2F49" stroke-width="1.3" /></g><g><ellipse cx="129.99118942731278" cy="32" rx="5.2" ry="3.8" transform="rotate(-20 129.99118942731278 32)" fill="#1B2F49" stroke="#1B2F49" stroke-width="0" /><line x1="125.29118942731277" y1="32" x2="125.29118942731277" y2="66" stroke="#1B2F49" stroke-width="1.3" /></g><g><ellipse cx="142.88986784140968" cy="38" rx="5.2" ry="3.8" transform="rotate(-20 142.88986784140968 38)" fill="#1B2F49" stroke="#1B2F49" stroke-width="0" /><line x1="138.1898678414097" y1="38" x2="138.1898678414097" y2="66" stroke="#1B2F49" stroke-width="1.3" /></g><g><ellipse cx="159.55066079295153" cy="44" rx="5.2" ry="3.8" transform="rotate(-20 159.55066079295153 44)" fill="#1B2F49" stroke="#1B2F49" stroke-width="0" /><text x="150.55066079295153" y="47.5" fill="#1B2F49" font-size="11" text-anchor="middle">♭</text><line x1="154.85066079295154" y1="44" x2="154.85066079295154" y2="66" stroke="#1B2F49" stroke-width="1.3" /></g><g><ellipse cx="176.21145374449338" cy="50" rx="5.2" ry="3.8" transform="rotate(-20 176.21145374449338 50)" fill="#1B2F49" stroke="#1B2F49" stroke-width="0" /><line x1="180.91145374449337" y1="50" x2="180.91145374449337" y2="28" stroke="#1B2F49" stroke-width="1.3" /></g><g><ellipse cx="189.1101321585903" cy="56" rx="5.2" ry="3.8" transform="rotate(-20 189.1101321585903 56)" fill="#1B2F49" stroke="#1B2F49" stroke-width="0" /><line x1="193.81013215859028" y1="56" x2="193.81013215859028" y2="28" stroke="#1B2F49" stroke-width="1.3" /></g><g><ellipse cx="202.00881057268722" cy="62" rx="5.2" ry="3.8" transform="rotate(-20 202.00881057268722 62)" fill="#1B2F49" stroke="#1B2F49" stroke-width="0" /><line x1="206.7088105726872" y1="62" x2="206.7088105726872" y2="28" stroke="#1B2F49" stroke-width="1.3" /></g><g><ellipse cx="218.66960352422907" cy="68" rx="5.2" ry="3.8" transform="rotate(-20 218.66960352422907 68)" fill="#1B2F49" stroke="#1B2F49" stroke-width="0" /><text x="209.66960352422907" y="71.5" fill="#1B2F49" font-size="11" text-anchor="middle">♭</text><line x1="223.36960352422906" y1="68" x2="223.36960352422906" y2="28" stroke="#1B2F49" stroke-width="1.3" /></g><g><ellipse cx="235.3303964757709" cy="74" rx="5.2" ry="3.8" transform="rotate(-20 235.3303964757709 74)" fill="#1B2F49" stroke="#1B2F49" stroke-width="0" /><line x1="240.03039647577089" y1="74" x2="240.03039647577089" y2="52" stroke="#1B2F49" stroke-width="1.3" /></g><g><g stroke="#1B2F49" stroke-width="1" opacity="0.8"><line x1="240.22907488986783" y1="80" x2="256.22907488986783" y2="80" /></g><ellipse cx="248.22907488986783" cy="80" rx="5.2" ry="3.8" transform="rotate(-20 248.22907488986783 80)" fill="#1B2F49" stroke="#1B2F49" stroke-width="0" /><line x1="252.92907488986782" y1="80" x2="252.92907488986782" y2="52" stroke="#1B2F49" stroke-width="1.3" /></g><g><g stroke="#1B2F49" stroke-width="1" opacity="0.8"><line x1="256.8898678414097" y1="80" x2="272.8898678414097" y2="80" /></g><ellipse cx="264.8898678414097" cy="86" rx="5.2" ry="3.8" transform="rotate(-20 264.8898678414097 86)" fill="#1B2F49" stroke="#1B2F49" stroke-width="0" /><text x="255.88986784140968" y="89.5" fill="#1B2F49" font-size="11" text-anchor="middle">♭</text><line x1="269.58986784140967" y1="86" x2="269.58986784140967" y2="52" stroke="#1B2F49" stroke-width="1.3" /></g><g><g stroke="#1B2F49" stroke-width="1" opacity="0.8"><line x1="273.55066079295153" y1="80" x2="289.55066079295153" y2="80" /><line x1="273.55066079295153" y1="92" x2="289.55066079295153" y2="92" /></g><ellipse cx="281.55066079295153" cy="92" rx="5.2" ry="3.8" transform="rotate(-20 281.55066079295153 92)" fill="#1B2F49" stroke="#1B2F49" stroke-width="0" /><line x1="286.2506607929515" y1="92" x2="286.2506607929515" y2="52" stroke="#1B2F49" stroke-width="1.3" /></g><line x1="49.51145374449339" y1="42" x2="91.96960352422907" y2="42" stroke="#1B2F49" stroke-width="3.5" /><line x1="49.51145374449339" y1="36" x2="66.17224669603523" y2="36" stroke="#1B2F49" stroke-width="3" /><line x1="66.17224669603523" y1="36" x2="79.07092511013215" y2="36" stroke="#1B2F49" stroke-width="3" /><line x1="79.07092511013215" y1="36" x2="91.96960352422907" y2="36" stroke="#1B2F49" stroke-width="3" /><line x1="108.63039647577092" y1="66" x2="154.85066079295154" y2="66" stroke="#1B2F49" stroke-width="3.5" /><line x1="108.63039647577092" y1="60" x2="125.29118942731277" y2="60" stroke="#1B2F49" stroke-width="3" /><line x1="125.29118942731277" y1="60" x2="138.1898678414097" y2="60" stroke="#1B2F49" stroke-width="3" /><line x1="138.1898678414097" y1="60" x2="154.85066079295154" y2="60" stroke="#1B2F49" stroke-width="3" /><line x1="180.91145374449337" y1="28" x2="223.36960352422906" y2="28" stroke="#1B2F49" stroke-width="3.5" /><line x1="180.91145374449337" y1="34" x2="193.81013215859028" y2="34" stroke="#1B2F49" stroke-width="3" /><line x1="193.81013215859028" y1="34" x2="206.7088105726872" y2="34" stroke="#1B2F49" stroke-width="3" /><line x1="206.7088105726872" y1="34" x2="223.36960352422906" y2="34" stroke="#1B2F49" stroke-width="3" /><line x1="240.03039647577089" y1="52" x2="286.2506607929515" y2="52" stroke="#1B2F49" stroke-width="3.5" /><line x1="240.03039647577089" y1="58" x2="252.92907488986782" y2="58" stroke="#1B2F49" stroke-width="3" /><line x1="252.92907488986782" y1="58" x2="269.58986784140967" y2="58" stroke="#1B2F49" stroke-width="3" /><line x1="269.58986784140967" y1="58" x2="286.2506607929515" y2="58" stroke="#1B2F49" stroke-width="3" /></g>
  <text x="14" y="255" font-family="sans-serif" font-size="6" fill="#6A7280">Dynamic layout — Clarke Study No. 26 (5th series), page 1 · 16-note bars wrap to one measure per line</text>
</svg>
