<svg xmlns="http://www.w3.org/2000/svg" width="600" height="248" viewBox="0 0 300 124">
  <rect x="0" y="0" width="300" height="124" rx="10" fill="#F8F2E3"/>
  <text x="14" y="17" font-family="sans-serif" font-size="7" font-weight="700" letter-spacing="1.2" fill="#B08A2E">FIRST STUDIES · No. 1</text>
  <text x="286" y="17" font-family="sans-serif" font-size="7.5" font-weight="600" fill="#5A6472" text-anchor="end">C major</text>
  <g transform="translate(0 24)"><g stroke="#3A4658" stroke-width="1" opacity="0.7"><line x1="6" y1="20" x2="294" y2="20" /><line x1="6" y1="32" x2="294" y2="32" /><line x1="6" y1="44" x2="294" y2="44" /><line x1="6" y1="56" x2="294" y2="56" /><line x1="6" y1="68" x2="294" y2="68" /></g><path d="M22 70c0-10 4-16 4-26 0-7-7-9-7-3 0 5 6 6 8 1 3-8-2-16-5-16" stroke="#1B2F49" stroke-width="1.6" stroke-linecap="round" fill="none" /><line x1="150" y1="14" x2="150" y2="74" stroke="#3A4658" stroke-width="1" opacity="0.5" /><line x1="294" y1="14" x2="294" y2="74" stroke="#3A4658" stroke-width="1.4" opacity="0.7" /><g fill="#1B2F49"><ellipse cx="58" cy="62" rx="5.2" ry="3.8" transform="rotate(-20 58 62)" /><ellipse cx="82" cy="56" rx="5.2" ry="3.8" transform="rotate(-20 82 56)" /><ellipse cx="106" cy="50" rx="5.2" ry="3.8" transform="rotate(-20 106 50)" /><ellipse cx="130" cy="44" rx="5.2" ry="3.8" transform="rotate(-20 130 44)" /><ellipse cx="170" cy="38" rx="5.2" ry="3.8" transform="rotate(-20 170 38)" /><ellipse cx="194" cy="44" rx="5.2" ry="3.8" transform="rotate(-20 194 44)" /><ellipse cx="218" cy="50" rx="5.2" ry="3.8" transform="rotate(-20 218 50)" /><ellipse cx="242" cy="56" rx="5.2" ry="3.8" transform="rotate(-20 242 56)" /></g><g stroke="#1B2F49" stroke-width="1.3"><line x1="62.5" y1="61" x2="62.5" y2="40" /><line x1="86.5" y1="55" x2="86.5" y2="34" /><line x1="110.5" y1="49" x2="110.5" y2="28" /><line x1="134.5" y1="43" x2="134.5" y2="22" /><line x1="174.5" y1="37" x2="174.5" y2="16" /><line x1="198.5" y1="43" x2="198.5" y2="22" /><line x1="222.5" y1="49" x2="222.5" y2="28" /><line x1="246.5" y1="55" x2="246.5" y2="34" /></g><path d="M58 70q36 14 72 0" stroke="#C9A24A" stroke-width="1.6" fill="none" /><path d="M170 70q36 14 72 0" stroke="#C9A24A" stroke-width="1.6" fill="none" /></g>
  <text x="14" y="118" font-family="sans-serif" font-size="6" fill="#6A7280">Before — MusicView (one fixed placeholder line)</text>
</svg>